<svg width="24" height="24" viewBox="0 0 24 24" fill="none" xmlns="http://www.w3.org/2000/svg">
<path d="M12.176 6.176C12.2333 6.30132 12.2992 6.4225 12.3733 6.53867C12.4373 6.66133 12.512 6.784 12.5813 6.90133C12.6507 7.01867 12.8107 7.26933 12.928 7.43467C13.0453 7.6 13.168 7.792 13.3013 7.968C13.4347 8.144 13.5573 8.30933 13.696 8.50133L14.112 8.98133C14.2613 9.136 14.4053 9.296 14.5547 9.44533C14.704 9.59467 14.9547 9.82933 15.1627 10.0107C15.3707 10.192 15.4933 10.2987 15.6587 10.432C15.824 10.5653 15.9573 10.6667 16.112 10.7787C16.7529 11.2627 17.4387 11.6842 18.16 12.0373C17.9467 12.144 17.728 12.256 17.5147 12.3787C17.3013 12.5013 17.0827 12.6293 16.8747 12.7627C16.6667 12.896 16.4533 13.0453 16.24 13.1893L15.6267 13.6587C14.9102 14.2382 14.2576 14.8926 13.68 15.6107C14.2149 16.4672 14.6634 17.3747 15.0187 18.32C15.8717 16.9788 17.0121 15.844 18.3573 14.9973L18.7147 14.784C18.787 14.7373 18.8618 14.6946 18.9387 14.656C19.0613 14.5867 19.184 14.528 19.312 14.464C19.44 14.4 19.728 14.2613 19.9413 14.1707L20.288 14.0373L20.72 13.888L21.1093 13.7653C22.039 13.4958 23.0002 13.3505 23.968 13.3333H24V10.6667C21.171 10.6667 18.4579 9.54286 16.4575 7.54247C14.4571 5.54208 13.3333 2.82898 13.3333 0L10.6667 0C10.6584 2.15097 11.1766 4.27128 12.176 6.176ZM5.67467 9.01867H5.648C3.96915 10.0872 2.02205 10.6586 0.032 10.6667H0V13.3333C2.82898 13.3333 5.54208 14.4571 7.54247 16.4575C9.54286 18.4579 10.6667 21.171 10.6667 24H13.3333V23.8453C13.3201 21.876 12.8644 19.9348 12 18.1653C11.7081 17.5636 11.3693 16.9858 10.9867 16.4373C10.896 16.304 10.8 16.1653 10.6987 16.0373C10.5973 15.9093 10.4427 15.696 10.304 15.5307L9.888 15.0507C9.73867 14.896 9.59467 14.736 9.44533 14.5867C9.296 14.4373 9.136 14.2933 8.98133 14.144C8.82667 13.9947 8.62933 13.84 8.448 13.6853C8.26667 13.5307 8.10667 13.4133 7.91467 13.2907L7.57333 13.0453C7.55384 13.0246 7.53022 13.0083 7.504 12.9973L7.072 12.7093C6.944 12.6293 6.816 12.5493 6.68267 12.48C6.41909 12.3077 6.14673 12.1493 5.86667 12.0053C6.77473 11.5633 7.62844 11.0175 8.41067 10.3787C9.12286 9.80008 9.77341 9.14952 10.352 8.43733C9.81559 7.57068 9.36374 6.65446 9.00267 5.70133C8.15163 7.03907 7.01513 8.17192 5.67467 9.01867Z" fill="#667186"/>
</svg>
