<svg width="46" height="44" viewBox="0 0 46 44" fill="none" xmlns="http://www.w3.org/2000/svg">
<path fill-rule="evenodd" clip-rule="evenodd" d="M24.4951 1.65C24.4951 1.21239 24.3371 0.792709 24.0558 0.483274C23.7744 0.173839 23.3929 0 22.9951 0C22.5973 0 22.2157 0.173839 21.9344 0.483274C21.6531 0.792709 21.4951 1.21239 21.4951 1.65V5.5H17.5471C16.8445 5.49966 16.158 5.73193 15.5771 6.1666L12.1871 8.7054C12.1039 8.76739 12.0056 8.80036 11.9051 8.8H3.70109C3.30326 8.8 2.92173 8.97384 2.64043 9.28327C2.35912 9.59271 2.20109 10.0124 2.20109 10.45C2.20109 10.8876 2.35912 11.3073 2.64043 11.6167C2.92173 11.9262 3.30326 12.1 3.70109 12.1H6.85509L0.121089 28.996C-0.00610849 29.3257 -0.033957 29.6916 0.041625 30.04C0.117207 30.3884 0.292245 30.701 0.541089 30.932C0.701089 31.0728 0.863089 31.207 1.15909 31.4182C1.53109 31.6844 2.06309 32.0298 2.74309 32.3708C4.10309 33.055 6.06709 33.7348 8.49509 33.7348C10.4791 33.739 12.4408 33.2738 14.2471 32.3708C14.9271 32.0298 15.4591 31.6844 15.8311 31.4182C16.1311 31.2048 16.2911 31.0706 16.4511 30.9276C16.7019 30.6992 16.8784 30.3872 16.9538 30.0387C17.0292 29.6902 16.9995 29.3242 16.8691 28.996L10.1331 12.1H11.9051C12.6071 12.1 13.2931 11.8668 13.8731 11.4334L17.2651 8.8946C17.3477 8.83303 17.4453 8.80008 17.5451 8.8H21.4951V40.7H12.5211C12.1233 40.7 11.7417 40.8738 11.4604 41.1833C11.1791 41.4927 11.0211 41.9124 11.0211 42.35C11.0211 42.7876 11.1791 43.2073 11.4604 43.5167C11.7417 43.8262 12.1233 44 12.5211 44H33.4691C33.8669 44 34.2485 43.8262 34.5298 43.5167C34.8111 43.2073 34.9691 42.7876 34.9691 42.35C34.9691 41.9124 34.8111 41.4927 34.5298 41.1833C34.2485 40.8738 33.8669 40.7 33.4691 40.7H24.4951V8.8H28.4431C28.5431 8.8 28.6431 8.833 28.7231 8.8946L32.1171 11.4334C32.6971 11.8668 33.3831 12.1 34.0851 12.1H35.8571L29.1211 28.996C28.9864 29.3338 28.9585 29.7116 29.0419 30.0689C29.1253 30.4262 29.3151 30.7425 29.5811 30.9672C29.6051 30.987 29.5811 30.9672 29.5851 30.9672C29.7835 31.1316 29.9905 31.2829 30.2051 31.4204C30.5751 31.6668 31.1051 31.9836 31.7851 32.3004C33.5935 33.1319 35.535 33.5568 37.4951 33.55C39.456 33.5564 41.3982 33.1308 43.2071 32.2982C43.8831 31.9836 44.4151 31.6668 44.7871 31.4204C45.0009 31.2815 45.2079 31.1303 45.4071 30.9672C45.6731 30.7425 45.8629 30.4262 45.9463 30.0689C46.0297 29.7116 46.0018 29.3338 45.8671 28.996L39.1351 12.1H42.2911C42.6889 12.1 43.0704 11.9262 43.3518 11.6167C43.6331 11.3073 43.7911 10.8876 43.7911 10.45C43.7911 10.0124 43.6331 9.59271 43.3518 9.28327C43.0704 8.97384 42.6889 8.8 42.2911 8.8H34.0871C33.9873 8.79992 33.8898 8.76697 33.8071 8.7054L30.4131 6.1666C29.8327 5.73235 29.147 5.5001 28.4451 5.5H24.4951V1.65ZM3.38109 29.0356C4.95529 29.957 6.71189 30.4369 8.49509 30.4326C10.2783 30.4369 12.0349 29.957 13.6091 29.0356L8.49509 16.2096L3.38109 29.0356ZM32.4011 28.9828C32.5651 29.0708 32.7491 29.1654 32.9511 29.26C34.0111 29.7506 35.5611 30.25 37.4951 30.25C39.2582 30.2555 40.9997 29.8223 42.5891 28.9828L37.4951 16.2074L32.4011 28.9828Z" fill="#B49564"/>
</svg>
